<svg width="75" height="58" viewBox="0 0 75 58" fill="none" xmlns="http://www.w3.org/2000/svg">
<path d="M45.075 30.25H29.925C29.7405 30.2491 29.5625 30.1811 29.4245 30.0586C29.2865 29.9361 29.1978 29.7675 29.175 29.5844L27.8438 17.5844C27.8319 17.4798 27.8422 17.3739 27.874 17.2736C27.9057 17.1733 27.9582 17.0808 28.0281 17.0021C28.0979 16.9234 28.1836 16.8603 28.2794 16.8169C28.3752 16.7734 28.4792 16.7506 28.5844 16.75H46.4156C46.5208 16.7506 46.6248 16.7734 46.7206 16.8169C46.8164 16.8603 46.9021 16.9234 46.9719 17.0021C47.0418 17.0808 47.0943 17.1733 47.126 17.2736C47.1578 17.3739 47.1681 17.4798 47.1563 17.5844L45.825 29.5844C45.8022 29.7675 45.7135 29.9361 45.5755 30.0586C45.4375 30.1811 45.2595 30.2491 45.075 30.25V30.25Z" stroke="white" stroke-linecap="round" stroke-linejoin="round"/>
<path d="M33.75 19.75V16.75C33.75 15.7554 34.1451 14.8016 34.8483 14.0983C35.5516 13.3951 36.5054 13 37.5 13C38.4946 13 39.4484 13.3951 40.1517 14.0983C40.8549 14.8016 41.25 15.7554 41.25 16.75V19.75" stroke="white" stroke-linecap="round" stroke-linejoin="round"/>
<path d="M15.5349 55H16.7249V49.49H16.7449L18.7249 55H19.7549L21.7349 49.49H21.7549V55H22.9449V47.86H21.2049L19.2849 53.45H19.2649L17.2949 47.86H15.5349V55ZM24.0716 51.97C24.0516 52.11 24.0416 52.26 24.0416 52.41C24.0416 54 25.0016 55.14 26.6516 55.14C28.3016 55.14 29.2616 54 29.2616 52.41C29.2616 50.98 28.4116 49.66 26.7116 49.69C25.4316 49.69 24.3916 50.31 24.2616 51.51H25.4716C25.5816 50.92 26.0216 50.59 26.7016 50.59C27.2216 50.59 27.9316 50.84 28.0916 51.97H24.0716ZM28.1116 52.72C28.0916 52.91 28.0516 53.1 27.9816 53.29C27.8816 53.56 27.5116 54.24 26.6516 54.24C26.2216 54.24 25.9116 54.08 25.6716 53.84C25.4416 53.6 25.2816 53.31 25.1916 52.72H28.1116ZM30.2387 55H31.3787V51.95C31.3787 51.19 31.8687 50.59 32.6287 50.59C33.3087 50.59 33.6087 50.94 33.6387 51.75V55H34.7787V51.45C34.7787 50.28 34.0787 49.69 32.9487 49.69C32.2687 49.69 31.6787 50.04 31.3987 50.51H31.3787V47.86H30.2387V55ZM35.7009 53.34C35.7309 54.56 36.6809 55.14 37.9909 55.14C39.0609 55.14 40.3009 54.69 40.3009 53.46C40.3009 52.44 39.4609 52.14 38.6309 51.95C37.7909 51.77 36.9509 51.68 36.9509 51.12C36.9509 50.67 37.5609 50.59 37.8909 50.59C38.4009 50.59 38.8309 50.73 38.9409 51.28H40.1309C40.0009 50.12 39.0309 49.69 37.9709 49.69C37.0309 49.69 35.8109 50.04 35.8109 51.17C35.8109 52.22 36.6309 52.52 37.4709 52.7C38.3009 52.89 39.1309 52.96 39.1609 53.56C39.1909 54.15 38.4509 54.24 38.0109 54.24C37.4009 54.24 36.9109 54.01 36.8409 53.34H35.7009ZM45.7064 49.83H44.5664V52.83C44.5664 53.63 44.2464 54.24 43.2964 54.24C42.6664 54.24 42.3064 53.91 42.3064 53V49.83H41.1664V53.11C41.1664 54.47 41.7364 55.14 43.0964 55.14C43.6664 55.14 44.2864 54.8 44.5664 54.28H44.5864V55H45.7064V49.83ZM46.9386 55H48.0786V47.86H46.9386V55ZM49.3507 55H50.4907V47.86H49.3507V55ZM56.0628 51.19C56.0628 50.1 55.0028 49.69 53.9928 49.69C52.8428 49.69 51.7228 50.08 51.6428 51.41H52.7828C52.8328 50.85 53.2828 50.59 53.9228 50.59C54.3728 50.59 54.9928 50.69 54.9928 51.29C54.9928 51.97 54.2728 51.86 53.4428 52.02C52.4828 52.13 51.4528 52.34 51.4528 53.63C51.4528 54.64 52.2928 55.14 53.2228 55.14C53.8328 55.14 54.5628 54.95 55.0128 54.51C55.1028 54.98 55.4228 55.14 55.8928 55.14C56.0828 55.14 56.4428 55.07 56.6128 55.01V54.22C56.5528 54.23 56.5028 54.24 56.4528 54.24H56.3328C56.1228 54.24 56.0628 54.13 56.0628 53.85V51.19ZM54.9228 53.26C54.9228 53.98 54.1428 54.24 53.6428 54.24C53.2428 54.24 52.5928 54.1 52.5928 53.58C52.5928 52.98 53.0328 52.8 53.5228 52.72C54.0328 52.63 54.5728 52.64 54.9228 52.41V53.26ZM57.2895 55H58.4295V52.54C58.4295 51.39 59.0595 50.77 59.8295 50.77C59.9895 50.77 60.1595 50.79 60.3195 50.82V49.72C60.2095 49.71 60.1595 49.69 59.8895 49.69C59.1995 49.69 58.5095 50.28 58.3795 50.83H58.3595V49.83H57.2895V55Z" fill="white"/>
</svg>
