<svg width="25" height="24" viewBox="0 0 25 24" fill="none" xmlns="http://www.w3.org/2000/svg">
<path d="M12.5 16.5C14.9853 16.5 17 14.4853 17 12C17 9.51472 14.9853 7.5 12.5 7.5C10.0147 7.5 8 9.51472 8 12C8 14.4853 10.0147 16.5 12.5 16.5Z" stroke="white" stroke-linecap="round" stroke-linejoin="round"/>
<path d="M17.7219 6.10315C17.9594 6.3219 18.1844 6.5469 18.3969 6.77815L20.9562 7.14377C21.3733 7.868 21.6947 8.6432 21.9125 9.45002L20.3562 11.5219C20.3562 11.5219 20.3844 12.1594 20.3562 12.4782L21.9125 14.55C21.6957 15.3572 21.3742 16.1325 20.9562 16.8563L18.3969 17.2219C18.3969 17.2219 17.9562 17.6813 17.7219 17.8969L17.3562 20.4563C16.632 20.8733 15.8568 21.1947 15.05 21.4125L12.9781 19.8563C12.66 19.8844 12.34 19.8844 12.0219 19.8563L9.94999 21.4125C9.14283 21.1957 8.3675 20.8742 7.64374 20.4563L7.27812 17.8969C7.04687 17.6781 6.82187 17.4531 6.60312 17.2219L4.04374 16.8563C3.62673 16.132 3.3053 15.3568 3.08749 14.55L4.64374 12.4782C4.64374 12.4782 4.61562 11.8406 4.64374 11.5219L3.08749 9.45002C3.30429 8.64286 3.62577 7.86753 4.04374 7.14377L6.60312 6.77815C6.82187 6.5469 7.04687 6.3219 7.27812 6.10315L7.64374 3.54377C8.36797 3.12676 9.14317 2.80533 9.94999 2.58752L12.0219 4.14377C12.34 4.11564 12.66 4.11564 12.9781 4.14377L15.05 2.58752C15.8572 2.80432 16.6325 3.1258 17.3562 3.54377L17.7219 6.10315Z" stroke="white" stroke-linecap="round" stroke-linejoin="round"/>
</svg>
