<svg width="540" height="135" viewBox="0 0 540 135" fill="none" xmlns="http://www.w3.org/2000/svg">
<path d="M539.566 57.9676C536.978 47.2114 524.857 29.4725 521.532 24.7429C521.854 24.5685 522.123 24.3096 522.31 23.9939C522.496 23.6782 522.593 23.3176 522.591 22.9509C522.597 22.5194 522.463 22.0976 522.209 21.7488C521.956 21.3999 521.596 21.1428 521.184 21.0161C522.493 20.7635 523.486 19.565 523.486 18.1114C523.486 16.7133 522.557 15.5502 521.321 15.2408L520.805 10.5428C521.372 10.4268 521.883 10.1191 522.25 9.67136C523.248 8.45644 523.016 6.51409 521.718 5.34211C521.53 5.17018 521.324 5.02058 521.102 4.8963C521.947 6.11627 522.015 7.68354 521.181 8.69766C520.347 9.71178 518.862 9.86838 517.588 9.16873C517.737 9.37767 517.906 9.57104 518.093 9.74587C518.421 10.0506 518.81 10.2819 519.234 10.4245C519.658 10.5671 520.108 10.6178 520.553 10.5731L520.031 15.2458C519.4 15.4129 518.844 15.7863 518.451 16.3065C518.057 16.8268 517.848 17.4639 517.858 18.1164C517.858 19.57 518.857 20.7686 520.168 21.0211C519.756 21.1461 519.396 21.4019 519.143 21.7498C518.889 22.0977 518.755 22.5189 518.761 22.9496C518.759 23.3167 518.857 23.6775 519.044 23.9933C519.231 24.309 519.501 24.5677 519.824 24.7417C516.494 29.4713 504.372 47.2101 501.794 57.9663H498.02V72.4733H475.5V92.6407H462.505V74.2894H406.006V87.5878H393.963V82.1965C394.159 81.7797 394.643 80.9071 394.643 80.3893C394.643 78.7475 393.587 77.3204 392.261 77.2244L392.153 75.935C392.253 75.9013 392.345 75.8481 392.423 75.7784C392.591 75.6257 392.695 75.4146 392.713 75.1881C392.731 74.9616 392.661 74.7368 392.519 74.5597C392.532 74.7276 392.508 74.8964 392.45 75.0544C392.392 75.2124 392.3 75.3559 392.181 75.4753C392.039 75.598 391.859 75.6675 391.672 75.6718C391.485 75.6762 391.301 75.6152 391.154 75.4993C391.458 75.9198 391.761 76.0171 392.037 75.9615L391.936 77.232C390.637 77.3583 389.61 78.774 389.61 80.3893C389.61 80.9071 390.096 81.7785 390.276 82.1965C390.29 82.1965 390.29 87.5878 390.29 87.5878H387.893V82.3114H387.112V32.698H388.344L388.801 30.5132H387.112V21.3091H387.934L388.355 19.589H387.112V18.2516H387.435C387.243 14.67 384.578 7.70501 383.724 5.53912L383.579 3.07266C383.869 3.13508 384.171 3.11492 384.45 3.01447C384.729 2.91402 384.974 2.73729 385.158 2.50435C385.246 2.39987 385.32 2.28338 385.376 2.15831C385.082 2.38706 384.719 2.50703 384.347 2.49782C383.976 2.48861 383.619 2.35079 383.337 2.1078C382.763 1.59506 382.62 0.718596 382.948 0C382.842 0.0852757 382.744 0.180878 382.656 0.285418C382.376 0.63939 382.241 1.08643 382.278 1.53625C382.314 1.98608 382.52 2.40519 382.854 2.70894C383.02 2.85833 383.215 2.97107 383.428 3.03982L383.302 5.26254C382.595 7.03062 379.681 14.4995 379.48 18.2516H379.801V19.589H378.558L378.984 21.3091H379.801V30.5132H378.114L378.577 32.698H379.806V82.3114H378.202V75.983H379.11L379.45 74.0229H378.202V72.5289C378.49 71.9151 379.19 70.6345 379.19 69.8768C379.19 67.5063 377.699 65.4339 375.792 65.2444L375.63 63.3981C375.84 63.4362 376.058 63.4169 376.259 63.3423C376.459 63.2676 376.637 63.1404 376.771 62.9737C376.833 62.8937 376.884 62.8063 376.924 62.7136C376.71 62.8827 376.444 62.9721 376.171 62.9663C375.898 62.9606 375.636 62.8601 375.429 62.682C375.222 62.4868 375.082 62.2306 375.03 61.9506C374.979 61.6705 375.018 61.3813 375.141 61.1248C375.063 61.1888 374.99 61.2589 374.923 61.3345C374.716 61.5955 374.616 61.9254 374.642 62.2576C374.669 62.5899 374.821 62.8995 375.067 63.124C375.184 63.2257 375.319 63.3037 375.466 63.3539L375.307 65.2482C373.362 65.3745 371.817 67.4798 371.817 69.8882C371.817 70.6459 372.517 71.924 372.793 72.5403C372.81 72.5403 372.81 74.0343 372.81 74.0343H371.563L371.904 75.9943H372.815V82.3228H370.039V66.5364H339.508V82.3228H336.784V75.6268H337.691L338.031 73.6655H336.784V72.1715C337.07 71.559 337.783 70.2771 337.783 69.5194C337.783 67.1123 336.231 65.0133 334.289 64.8807L334.129 62.9864C334.275 62.9361 334.41 62.859 334.528 62.759C334.773 62.5336 334.925 62.2235 334.951 61.8911C334.978 61.5586 334.877 61.2284 334.67 60.967C334.607 60.888 334.534 60.8176 334.453 60.7573C334.579 61.013 334.619 61.302 334.568 61.5821C334.517 61.8623 334.379 62.1189 334.172 62.3145C333.964 62.4937 333.701 62.5951 333.427 62.6014C333.153 62.6076 332.885 62.5182 332.669 62.3486C332.711 62.4394 332.765 62.5243 332.828 62.6012C332.962 62.768 333.138 62.8955 333.338 62.97C333.538 63.0445 333.754 63.0633 333.964 63.0243L333.806 64.8795C331.905 65.0676 330.4 67.1413 330.4 69.5106C330.4 70.2683 331.106 71.5476 331.378 72.1627C331.398 72.1627 331.398 73.6567 331.398 73.6567H330.151L330.492 75.618H331.398V82.3026H329.793V32.698H331.019L331.481 30.5132H329.793V21.3091H330.61L331.034 19.589H329.793V18.2516H330.121C329.914 14.5058 327 7.03567 326.289 5.26254L326.163 3.03982C326.377 2.96974 326.574 2.85719 326.742 2.70894C326.934 2.53554 327.085 2.32224 327.185 2.08404C327.285 1.84585 327.332 1.58856 327.322 1.3303C327.312 1.07203 327.246 0.819073 327.128 0.589232C327.01 0.359392 326.843 0.158259 326.639 0C326.972 0.723647 326.828 1.59506 326.25 2.1078C325.672 2.62054 324.838 2.61296 324.211 2.15831C324.268 2.28283 324.341 2.3992 324.428 2.50435C324.613 2.73683 324.858 2.91321 325.137 3.01363C325.416 3.11404 325.717 3.13448 326.007 3.07266L325.863 5.53912C325.013 7.69617 322.347 14.67 322.151 18.2516H322.475V19.589H321.239L321.658 21.3091H322.475V30.5132H320.786L321.244 32.698H322.475V82.3114H321.689V87.5878H319.3V82.1965C319.502 81.7797 319.98 80.9071 319.98 80.3893C319.98 78.774 318.954 77.3583 317.661 77.232L317.554 75.9615C317.697 75.9899 317.845 75.9782 317.982 75.9276C318.118 75.877 318.238 75.7895 318.328 75.6748C318.17 75.7148 318.005 75.7176 317.846 75.683C317.686 75.6483 317.537 75.5773 317.41 75.4753C317.27 75.3423 317.176 75.1682 317.141 74.9781C317.107 74.7881 317.134 74.592 317.218 74.4182C316.773 74.9234 316.821 75.4677 317.165 75.7784C317.245 75.8462 317.337 75.8992 317.435 75.935L317.325 77.2244C316.002 77.3204 314.951 78.7487 314.951 80.3893C314.951 80.9071 315.43 81.7785 315.613 82.1965C315.632 82.1965 315.632 87.5878 315.632 87.5878H313.305V69.9778H277.758V67.8309H279.547L280.072 64.81H277.758V54.4163H279.159L279.686 51.3979H277.758V38.1752C278.204 37.2344 279.292 35.2567 279.292 34.0872C279.292 30.4248 276.977 27.2346 274.035 26.9366L273.803 24.0799C274.127 24.14 274.461 24.1106 274.77 23.9949C275.079 23.8793 275.35 23.6816 275.555 23.4232C275.65 23.3008 275.732 23.1682 275.798 23.0279C275.087 23.5482 274.131 23.5545 273.477 22.9685C272.824 22.3825 272.666 21.3987 273.032 20.569C272.911 20.6642 272.803 20.7731 272.707 20.8936C272.386 21.295 272.23 21.8039 272.27 22.3166C272.311 22.8293 272.545 23.3073 272.926 23.653C273.106 23.8116 273.315 23.9346 273.541 24.0155L273.298 26.9265C270.293 27.1387 267.909 30.373 267.909 34.0872C267.909 35.2567 268.997 37.2344 269.416 38.1752C269.444 38.1752 269.444 51.3992 269.444 51.3992H267.515L268.042 54.4175H269.444V64.8113H267.904L268.423 67.8321H269.444V87.5878H264.835C265.452 85.2941 265.757 82.9276 265.742 80.5522C265.742 72.0768 262.189 62.7451 257.81 62.7451C253.431 62.7451 249.871 72.078 249.871 80.5522C249.853 82.9278 250.158 85.2948 250.779 87.5878H247.297V66.6652H248.316L248.842 63.6456H247.297V53.2531H248.698L249.223 50.2322H247.297V37.0033C247.743 36.0624 248.83 34.0847 248.83 32.919C248.83 29.2035 246.445 25.973 243.442 25.757L243.19 22.8448C243.417 22.7643 243.626 22.6413 243.807 22.4823C244.186 22.1356 244.419 21.658 244.459 21.146C244.499 20.6341 244.344 20.1259 244.024 19.7241C243.93 19.6015 243.819 19.4923 243.695 19.3996C244.073 20.2268 243.913 21.2144 243.26 21.7991C242.606 22.3838 241.651 22.3813 240.934 21.8534C241.001 21.9955 241.086 22.1283 241.187 22.2487C241.391 22.5084 241.662 22.7069 241.971 22.8225C242.28 22.9382 242.615 22.9664 242.939 22.9041L242.696 25.7659C239.765 26.0589 237.443 29.2578 237.443 32.9177C237.443 34.0834 238.533 36.0611 238.957 37.002C238.983 37.002 238.983 50.2284 238.983 50.2284H237.055L237.581 53.2493H238.983V63.6507H236.671L237.191 66.6703H238.981V87.5878H234.129V75.1356H235.986L236.681 71.4125H234.129V55.9646H234.634C234.342 51.1011 230.583 41.7973 229.159 38.4354L228.825 34.7123C229.249 34.7893 229.685 34.7551 230.092 34.613C230.499 34.4709 230.861 34.2258 231.145 33.9016C231.271 33.75 231.382 33.5863 231.476 33.4128C230.528 34.0607 229.27 34.0645 228.395 33.3446C227.519 32.6247 227.316 31.4048 227.809 30.3843C227.648 30.4988 227.503 30.6333 227.375 30.7847C227.165 31.025 227.005 31.3053 226.905 31.609C226.806 31.9126 226.768 32.2333 226.796 32.5518C226.823 32.8702 226.914 33.1799 227.064 33.4622C227.214 33.7444 227.419 33.9936 227.667 34.1945C227.908 34.3909 228.183 34.5404 228.479 34.6353L228.145 38.2813C226.791 41.4942 222.904 51.0266 222.613 55.9621H223.106V71.4125H220.553L221.248 75.1356H223.106V87.5878H216.862V86.5775H218.449L218.912 84.082H216.862V75.5069H218.11L218.578 73.0177H216.862V62.6858H217.198C217.006 59.4262 214.484 53.2051 213.539 50.9546L213.311 48.4616C213.593 48.5159 213.885 48.4948 214.157 48.4004C214.429 48.3059 214.672 48.1415 214.86 47.9236C214.949 47.8242 215.024 47.7139 215.085 47.5953C214.782 47.8112 214.418 47.9233 214.046 47.9149C213.674 47.9065 213.316 47.778 213.023 47.5486C212.744 47.3111 212.554 46.9859 212.483 46.6262C212.413 46.2665 212.467 45.8935 212.636 45.5683C212.526 45.6456 212.426 45.7354 212.338 45.836C212.165 46.0377 212.045 46.2793 211.988 46.539C211.932 46.7988 211.941 47.0685 212.015 47.3238C212.089 47.5791 212.225 47.812 212.412 48.0014C212.598 48.1908 212.828 48.3307 213.082 48.4086L212.859 50.8498C211.946 53.0031 209.349 59.3795 209.152 62.6858H209.482V73.0177H207.777L208.244 75.5069H209.482V84.0858H208.118L208.585 86.5813H209.482V87.5916H205.637V77.1284C205.637 63.6822 195.475 52.7214 182.779 52.2643L182.451 48.2798C183.127 48.0436 183.75 47.6757 184.283 47.1975C186.63 45.1137 186.932 41.4197 184.946 38.9545C184.656 38.5966 184.324 38.274 183.959 37.9934C185.069 40.4611 184.607 43.41 182.636 45.1566C180.666 46.9032 177.831 46.8881 175.697 45.3246C175.898 45.7459 176.146 46.1433 176.435 46.5092C177.046 47.2836 177.856 47.8767 178.779 48.2249C179.701 48.5732 180.7 48.6633 181.67 48.4856L181.352 52.2567C168.551 52.5901 158.264 63.5938 158.264 77.1284V87.5878H154.41V86.5775H155.317L155.779 84.082H154.41V75.5069H155.657L156.119 73.0177H154.41V62.6858H154.744C154.547 59.3757 151.951 52.998 151.039 50.8498L150.82 48.4086C151.019 48.3487 151.203 48.2485 151.362 48.1143C151.551 47.9572 151.702 47.7585 151.802 47.5337C151.903 47.3088 151.95 47.0638 151.941 46.8176C151.932 46.5715 151.866 46.3308 151.749 46.1141C151.632 45.8975 151.467 45.7107 151.266 45.5683C151.434 45.8941 151.487 46.2674 151.415 46.6271C151.344 46.9868 151.153 47.3116 150.873 47.5486C150.294 48.0322 149.45 48.0259 148.818 47.5953C148.876 47.7125 148.948 47.8227 149.031 47.9236C149.221 48.1408 149.465 48.3047 149.737 48.399C150.01 48.4933 150.302 48.5149 150.586 48.4616L150.364 50.9546C149.414 53.2051 146.897 59.4262 146.705 62.6858H147.033V73.0177H145.328L145.79 75.5069H147.033V84.0858H144.983L145.446 86.5813H147.033V87.5916H140.789V75.1393H142.647L143.344 71.4163H140.789V55.9646H141.284C140.996 51.0241 137.12 41.4967 135.745 38.2838L135.422 34.6378C135.719 34.5419 135.996 34.3925 136.24 34.1971C136.486 33.9946 136.689 33.7447 136.837 33.4623C136.985 33.1799 137.075 32.8706 137.102 32.5527C137.129 32.2348 137.092 31.9148 136.993 31.6116C136.894 31.3083 136.735 31.028 136.526 30.7872C136.395 30.6366 136.247 30.5021 136.084 30.3869C136.589 31.4073 136.377 32.6235 135.501 33.3471C134.626 34.0708 133.372 34.0632 132.422 33.4153C132.512 33.5916 132.624 33.7558 132.755 33.9041C133.039 34.2289 133.402 34.4744 133.809 34.6166C134.216 34.7587 134.652 34.7926 135.076 34.7149L134.736 38.4379C133.324 41.7998 129.554 51.1036 129.266 55.9671H129.771V71.4125H127.211L127.908 75.1356H129.771V87.5878H97.5438V63.3981C96.8801 56.4786 87.5188 42.7773 85.0926 39.327C85.3281 39.1992 85.521 39.005 85.6472 38.7684C85.7734 38.5319 85.8274 38.2635 85.8026 37.9965C85.7777 37.7294 85.675 37.4756 85.5073 37.2665C85.3396 37.0574 85.1143 36.9022 84.8592 36.8201C85.2935 36.7197 85.6821 36.4775 85.9637 36.1317C86.2454 35.7859 86.4042 35.3561 86.415 34.9101C86.4258 34.4641 86.2881 34.0271 86.0236 33.668C85.7591 33.3089 85.3827 33.048 84.9538 32.9266L84.5981 29.7617C84.9818 29.6824 85.3267 29.4732 85.5746 29.1694C86.2496 28.3536 86.0906 27.0452 85.2138 26.2534C85.088 26.1389 84.951 26.0373 84.805 25.9503C85.3677 26.7775 85.4169 27.832 84.8529 28.5152C84.289 29.1985 83.2872 29.302 82.4318 28.836C82.5318 28.9781 82.6478 29.1082 82.7775 29.2237C82.997 29.4303 83.2587 29.5868 83.5445 29.6823C83.8302 29.7778 84.1333 29.8101 84.4328 29.7769L84.0833 32.9266C83.6552 33.0486 83.2796 33.3093 83.0155 33.6681C82.7515 34.0268 82.6138 34.4631 82.6242 34.9085C82.6346 35.354 82.7924 35.7834 83.073 36.1294C83.3535 36.4753 83.7408 36.7183 84.1742 36.8201C83.8967 36.905 83.6543 37.078 83.4836 37.3128C83.3129 37.5477 83.2232 37.8318 83.2279 38.1222C83.2261 38.3695 83.2921 38.6126 83.4186 38.825C83.5452 39.0375 83.7275 39.2111 83.9458 39.327C81.5184 42.7773 72.157 56.4786 71.4884 63.3981V75.3591H69.2704V67.7185C69.2805 67.7185 70.8941 65.5842 70.8941 65.5842V59.1433H69.2704V41.474C69.1897 41.474 66.5667 27.6994 66.5667 27.6994L66.2172 20.9567C66.0419 20.9567 65.6911 27.6918 65.6911 27.6918L63.0682 41.474C62.9874 41.474 62.9874 59.1395 62.9874 59.1395H61.3637V65.5804L62.9723 67.7147C62.9874 67.7147 62.9874 75.3553 62.9874 75.3553H18.8073V67.7147C18.8174 67.7147 20.4361 65.5804 20.4361 65.5804V59.1395H18.8073V41.474C18.7278 41.474 16.1099 27.6969 16.1099 27.6969L15.7604 20.9567C15.5787 20.9567 15.2293 27.6969 15.2293 27.6969L12.6164 41.474C12.5357 41.474 12.5357 59.1395 12.5357 59.1395H10.9006V65.5804L12.5155 67.7147C12.5306 67.7147 12.5306 75.3553 12.5306 75.3553H9.62127V87.5891H0V135.005H540V57.9676H539.566Z" fill="white" fill-opacity="0.2"/>
</svg>
