<svg width="19" height="19" viewBox="0 0 19 19" fill="none" xmlns="http://www.w3.org/2000/svg">
<path d="M11.75 17.5V13C11.75 12.801 11.671 12.6103 11.5303 12.4696C11.3897 12.329 11.1989 12.25 11 12.25H8C7.80109 12.25 7.61032 12.329 7.46967 12.4696C7.32902 12.6103 7.25 12.801 7.25 13V17.5C7.25 17.6989 7.17098 17.8896 7.03033 18.0303C6.88968 18.1709 6.69891 18.25 6.5 18.25H2C1.80109 18.25 1.61032 18.1709 1.46967 18.0303C1.32902 17.8896 1.25 17.6989 1.25 17.5V8.82808C1.25168 8.72429 1.27411 8.62188 1.31597 8.52688C1.35783 8.43189 1.41828 8.34623 1.49375 8.27496L8.99375 1.45933C9.13201 1.33284 9.31261 1.2627 9.5 1.2627C9.68739 1.2627 9.86799 1.33284 10.0062 1.45933L17.5062 8.27496C17.5817 8.34623 17.6422 8.43189 17.684 8.52688C17.7259 8.62188 17.7483 8.72429 17.75 8.82808V17.5C17.75 17.6989 17.671 17.8896 17.5303 18.0303C17.3897 18.1709 17.1989 18.25 17 18.25H12.5C12.3011 18.25 12.1103 18.1709 11.9697 18.0303C11.829 17.8896 11.75 17.6989 11.75 17.5Z" stroke="white" stroke-linecap="round" stroke-linejoin="round"/>
</svg>
